<svg width="105" height="58" viewBox="0 0 105 58" fill="none" xmlns="http://www.w3.org/2000/svg">
<g id="Group">
<g id="Group_2">
<g id="Group_3">
<path id="Vector" d="M7.90564 0.177274V0.930283C8.25658 0.96379 8.53169 1.05898 8.72743 1.22122C8.92318 1.38346 9.06423 1.59333 9.14182 1.85432C9.22294 2.11356 9.25998 2.40101 9.25646 2.72196V3.73943H9.16653C8.92669 3.33736 8.62515 2.99173 8.25659 2.69193C7.88802 2.39391 7.48242 2.16464 7.03273 1.99888C6.58481 1.83311 6.12453 1.75205 5.64839 1.74852C5.08761 1.75205 4.56917 1.86312 4.08597 2.08003C3.60102 2.30047 3.16718 2.60736 2.77569 3.0059C2.38948 3.40445 2.05793 3.86819 1.77754 4.40429C1.50067 4.94215 1.28729 5.52764 1.13916 6.16249C0.991029 6.80087 0.913452 7.46744 0.913452 8.16578C0.916979 8.95406 1.00867 9.66297 1.19384 10.2925C1.379 10.9274 1.62945 11.4812 1.9504 11.952C2.27135 12.4282 2.63637 12.8231 3.04902 13.1441C3.46168 13.4597 3.90078 13.6961 4.36281 13.8548C4.8266 14.0135 5.29216 14.0946 5.76125 14.0946C6.30087 14.0911 6.78407 13.9994 7.20554 13.8142C7.62525 13.6255 7.99736 13.3716 8.31831 13.0471C8.64456 12.7226 8.93375 12.3505 9.18945 11.9273H9.25646V13.1212C9.25998 13.4421 9.22294 13.7296 9.14182 13.9871C9.06423 14.2463 8.92318 14.4597 8.72743 14.6219C8.53169 14.7841 8.25658 14.8812 7.90564 14.9147V15.6658H12.5084V14.9147C12.1574 14.8812 11.8858 14.7841 11.6848 14.6219C11.4908 14.4597 11.3497 14.2463 11.2721 13.9871C11.1963 13.7296 11.1557 13.4421 11.1575 13.1212V11.9273H11.2245C11.4784 12.3505 11.7712 12.7226 12.0957 13.0471C12.4202 13.3716 12.7887 13.6255 13.2084 13.8142C13.6299 13.9994 14.1113 14.0911 14.6545 14.0946C15.1218 14.0946 15.5874 14.0135 16.0529 13.8548C16.5132 13.6961 16.9523 13.4597 17.365 13.1441C17.7794 12.8231 18.1426 12.4282 18.4636 11.952C18.7846 11.4812 19.035 10.9274 19.2202 10.2925C19.4036 9.66297 19.4953 8.95406 19.5005 8.16578C19.5005 7.46744 19.4229 6.80087 19.2748 6.16249C19.1284 5.52764 18.915 4.94215 18.6364 4.40429C18.3613 3.86819 18.0263 3.40445 17.6383 3.0059C17.2468 2.60736 16.8112 2.30047 16.328 2.08003C15.8466 1.86312 15.3264 1.75205 14.7656 1.74852C14.2895 1.75205 13.8292 1.83311 13.383 1.99888C12.9351 2.16464 12.5277 2.39391 12.1574 2.69193C11.7924 2.99173 11.4873 3.33736 11.2474 3.73943H11.1575V2.72196C11.1557 2.40101 11.1963 2.11356 11.2721 1.85432C11.3497 1.59333 11.4908 1.38346 11.6848 1.22122C11.8858 1.05898 12.1574 0.96379 12.5084 0.930283V0.177274H7.90564ZM11.1575 6.94898C11.1663 6.14836 11.2615 5.48179 11.4538 4.94569C11.6424 4.40606 11.8894 3.97928 12.1944 3.66538C12.4978 3.34972 12.8258 3.12404 13.1749 2.98825C13.5259 2.8507 13.8644 2.78539 14.1907 2.78891C14.4658 2.78539 14.7515 2.82244 15.0389 2.89827C15.3299 2.97939 15.6068 3.12404 15.8748 3.33742C16.1411 3.54727 16.3809 3.85062 16.5943 4.24563C16.8042 4.63889 16.9735 5.14854 17.0987 5.77458C17.2221 6.40238 17.2838 7.16948 17.2874 8.07591C17.2838 8.91356 17.2168 9.62422 17.0845 10.2079C16.9523 10.7934 16.7759 11.2695 16.5537 11.6469C16.3333 12.019 16.0882 12.3065 15.8202 12.5128C15.5539 12.7191 15.2858 12.8584 15.0125 12.9413C14.7427 13.0224 14.4887 13.0577 14.256 13.0559C14.0937 13.0577 13.8838 13.0365 13.6299 12.9889C13.3742 12.936 13.1061 12.8267 12.8204 12.6609C12.5383 12.4899 12.272 12.2324 12.0216 11.8814C11.7659 11.5358 11.5649 11.0668 11.4044 10.4778C11.2475 9.887 11.1628 9.14626 11.1575 8.25393V6.94898ZM9.25646 8.25393C9.25116 9.17094 9.15594 9.94339 8.97607 10.5624C8.7909 11.1813 8.54758 11.6751 8.24426 12.0402C7.94271 12.4052 7.61113 12.668 7.24961 12.8267C6.88457 12.9819 6.52308 13.0577 6.15804 13.0559C5.92879 13.0577 5.6784 13.0224 5.40858 12.943C5.14053 12.8637 4.87248 12.7226 4.60267 12.5198C4.33639 12.317 4.093 12.0261 3.86904 11.654C3.64684 11.2801 3.46875 10.8022 3.33296 10.2149C3.2007 9.63298 3.13016 8.91709 3.12663 8.07591C3.13016 7.18711 3.19715 6.43233 3.32236 5.80805C3.4511 5.18907 3.62394 4.6794 3.84261 4.28438C4.05952 3.8876 4.29933 3.5808 4.56914 3.36389C4.83719 3.1417 5.11403 2.99181 5.40148 2.90892C5.68716 2.82428 5.95876 2.78539 6.22504 2.78891C6.56716 2.78539 6.91457 2.85593 7.26727 2.99525C7.62173 3.13809 7.94623 3.36735 8.24426 3.6883C8.54758 4.00926 8.7874 4.43607 8.97257 4.97217C9.15597 5.5065 9.25116 6.16599 9.25646 6.94898V8.25393ZM21.5144 0.177274V0.930283C21.8566 0.967317 22.1263 1.06606 22.3221 1.22477C22.5143 1.38701 22.6501 1.59328 22.7277 1.84722C22.8088 2.10292 22.8458 2.39396 22.8423 2.72196V13.1212C22.8458 13.4492 22.8088 13.7384 22.7277 13.9959C22.6501 14.2498 22.5143 14.4562 22.3221 14.6149C22.1263 14.7771 21.8566 14.8759 21.5144 14.9147V15.6658H26.0501V14.9147C25.7062 14.8759 25.4364 14.7771 25.2512 14.6219C25.0573 14.4632 24.925 14.2568 24.8509 14.0029C24.7769 13.7472 24.7416 13.4527 24.7451 13.1212V12.5463L33.6172 4.35844H33.6824V13.1212C33.6877 13.4421 33.6507 13.7296 33.5766 13.9871C33.499 14.2463 33.3668 14.4597 33.171 14.6219C32.9788 14.7841 32.7055 14.8812 32.3563 14.9147V15.6658H36.892V14.9147C36.5269 14.8688 36.2501 14.7665 36.0614 14.6114C35.8744 14.4562 35.7457 14.2499 35.6787 13.9995C35.6117 13.7473 35.5835 13.4527 35.5853 13.1212V2.72196C35.5835 2.39396 35.6152 2.10292 35.6857 1.84722C35.7527 1.59328 35.8815 1.38701 36.0737 1.22477C36.2606 1.06606 36.534 0.967317 36.892 0.930283V0.177274H32.3563V0.930283C32.6032 0.951445 32.8254 1.02549 33.0229 1.14717C33.2275 1.26532 33.3844 1.42404 33.5026 1.61979C33.6207 1.81377 33.6807 2.03238 33.6824 2.27926V2.98825L24.8104 11.1532H24.7451V2.72196C24.7416 2.39396 24.7751 2.10292 24.8403 1.84722C24.9091 1.59328 25.0396 1.38701 25.2301 1.22477C25.4188 1.06606 25.6921 0.967317 26.0501 0.930283V0.177274H21.5144ZM40.8739 4.02692H41.4946C41.7627 3.41852 42.0819 2.9212 42.4452 2.52618C42.8102 2.13292 43.1946 1.82256 43.6002 1.59331C44.0094 1.36759 44.4114 1.20185 44.8064 1.09604C45.205 0.991995 45.5683 0.924942 45.9051 0.900254C46.2402 0.870274 46.517 0.8597 46.7375 0.863227C47.0549 0.863227 47.3441 0.900322 47.598 0.970862C47.8555 1.03787 48.0848 1.12952 48.2911 1.24415C48.4974 1.35877 48.6773 1.47869 48.8413 1.61624C49.187 1.89663 49.4568 2.24228 49.6507 2.65846C49.8465 3.07993 49.9435 3.5473 49.947 4.07105C49.947 4.34086 49.91 4.62126 49.8324 4.91577C49.7548 5.21027 49.6331 5.50651 49.4638 5.79395C49.2981 6.0814 49.0829 6.34765 48.8184 6.59454C48.3899 6.43935 47.9737 6.32124 47.5751 6.24365C47.1783 6.16606 46.778 6.12902 46.3848 6.12902C45.891 6.12902 45.4695 6.15196 45.1221 6.19252C44.7765 6.23661 44.489 6.29655 44.2598 6.37238C43.87 6.51699 43.5738 6.68268 43.378 6.87137C43.184 7.0583 43.0571 7.23821 42.9954 7.41633C42.9319 7.59267 42.9072 7.74085 42.9107 7.85547C42.9107 8.0036 42.9478 8.15695 43.0254 8.32271C43.0977 8.48672 43.2246 8.64373 43.3957 8.78834C43.572 8.93471 43.7995 9.05642 44.087 9.14988C44.3744 9.24158 44.7254 9.28915 45.1451 9.29444C45.6653 9.28915 46.1661 9.22738 46.6458 9.11275C47.1289 8.99812 47.5716 8.85008 47.9807 8.67726C48.3899 8.50091 48.7408 8.32273 49.0388 8.14286C49.4744 8.49732 49.8165 8.92941 50.0616 9.44082C50.305 9.95046 50.4302 10.543 50.4337 11.2184C50.4302 11.7898 50.3332 12.3064 50.1498 12.7667C49.9646 13.2287 49.7178 13.6238 49.4092 13.9553C49.0988 14.2833 48.7514 14.5373 48.3722 14.7136C47.9878 14.8864 47.6016 14.9799 47.203 14.9799C46.8486 14.9764 46.5135 14.9252 46.1891 14.8211C45.8681 14.7206 45.5612 14.5849 45.2667 14.4191C44.9758 14.2498 44.6954 14.0681 44.4309 13.8706C44.161 13.6713 43.9053 13.4721 43.6637 13.2764C43.1576 12.8708 42.692 12.5498 42.2688 12.3135C41.8456 12.0772 41.4471 11.9555 41.0732 11.9485C40.7099 11.952 40.3731 12.049 40.0698 12.2394C39.7682 12.4281 39.4808 12.6821 39.2092 12.9995C38.9394 13.3205 38.666 13.6784 38.3962 14.0717L38.86 14.6272C38.9024 14.5743 38.9623 14.4967 39.0381 14.3979C39.1157 14.2974 39.2092 14.1934 39.3114 14.0876C39.4173 13.98 39.5301 13.8883 39.6501 13.8142C39.7682 13.7384 39.8899 13.6996 40.0116 13.696C40.1738 13.6996 40.3501 13.7384 40.5353 13.8072C40.724 13.8813 40.9144 13.973 41.112 14.0876C41.3059 14.2022 41.5017 14.3185 41.6939 14.449C42.4311 14.9252 43.2052 15.2744 44.02 15.5036C44.8347 15.7329 45.7288 15.844 46.6934 15.844C47.2983 15.844 47.8926 15.7734 48.4675 15.6288C49.0476 15.4877 49.5855 15.2867 50.0916 15.0169C50.5924 14.7506 51.0351 14.4226 51.4178 14.0382C51.8004 13.6555 52.1002 13.2199 52.3171 12.735C52.5323 12.243 52.6434 11.7087 52.6451 11.1302C52.6434 10.5395 52.5393 9.99105 52.34 9.49022C52.1372 8.98763 51.8639 8.54148 51.5148 8.15351C51.1673 7.76731 50.7688 7.44632 50.3227 7.19062V7.05833C50.6436 6.79028 50.924 6.50459 51.1709 6.21362C51.4142 5.92265 51.6065 5.59821 51.7458 5.24728C51.8869 4.89282 51.9556 4.49601 51.9609 4.04985C51.9609 3.51728 51.8533 3.01292 51.6435 2.52973C51.4283 2.0483 51.1074 1.61623 50.6806 1.23532C50.2486 0.856171 49.7107 0.558125 49.0582 0.335927C48.4057 0.119019 47.6421 0.00438842 46.7604 0.000861462C46.3442 0.000861462 45.9598 0.0291383 45.6141 0.0855696C45.2632 0.140238 44.9387 0.214304 44.6372 0.306005C44.3303 0.395942 44.0376 0.491131 43.7519 0.59694C43.3198 0.752126 42.9654 0.849145 42.685 0.889705C42.4046 0.930265 42.1806 0.910898 42.0113 0.833305C41.8403 0.757475 41.7045 0.619908 41.6058 0.420635H40.8739V4.02692ZM48.0001 7.50093C47.7638 7.73018 47.5099 7.91897 47.2401 8.06181C46.9667 8.20641 46.7005 8.3157 46.4324 8.38977C46.1661 8.46736 45.9228 8.51855 45.7023 8.54853C45.4819 8.57322 45.3038 8.58556 45.168 8.58556C44.7694 8.58203 44.4696 8.52907 44.2756 8.4409C44.0834 8.34919 43.9582 8.24693 43.8983 8.13231C43.8401 8.02121 43.8101 7.92601 43.8172 7.85547C43.8137 7.72498 43.8648 7.5892 43.9723 7.44635C44.0799 7.30528 44.2633 7.18533 44.5261 7.08481C44.7871 6.98077 45.1486 6.92958 45.6089 6.92605C46.0092 6.92252 46.406 6.96314 46.8045 7.04779C47.2031 7.13243 47.6016 7.28402 48.0001 7.50093ZM54.2164 0.177274V0.930283C54.5603 0.967317 54.8283 1.06606 55.0241 1.22477C55.2163 1.38701 55.3521 1.59328 55.4297 1.84722C55.5108 2.10292 55.5496 2.39396 55.5443 2.72196V13.1212C55.5496 13.4492 55.5108 13.7384 55.4297 13.9959C55.3521 14.2498 55.2163 14.4562 55.0241 14.6149C54.8283 14.7771 54.5603 14.8759 54.2164 14.9147V15.6658H58.7539V14.9147C58.41 14.8759 58.1401 14.7771 57.9532 14.6219C57.761 14.4632 57.627 14.2568 57.5529 14.0029C57.4806 13.7472 57.4435 13.4527 57.4471 13.1212V12.5463L66.3192 4.35844H66.3862V13.1212C66.3897 13.4421 66.3527 13.7296 66.2786 13.9871C66.2028 14.2463 66.0688 14.4597 65.8748 14.6219C65.6826 14.7841 65.4092 14.8812 65.06 14.9147V15.6658H69.5939V14.9147C69.2306 14.8688 68.9538 14.7665 68.7651 14.6114C68.5764 14.4562 68.4477 14.2499 68.3824 13.9995C68.3137 13.7473 68.2854 13.4527 68.289 13.1212V2.72196C68.2854 2.39396 68.3189 2.10292 68.3877 1.84722C68.4565 1.59328 68.5835 1.38701 68.7757 1.22477C68.9644 1.06606 69.2359 0.967317 69.5939 0.930283V0.177274H65.06V0.930283C65.3052 0.951445 65.5274 1.02549 65.7266 1.14717C65.9294 1.26532 66.0881 1.42404 66.2045 1.61979C66.3244 1.81377 66.3826 2.03238 66.3862 2.27926V2.98825L57.5141 11.1532H57.4471V2.72196C57.4435 2.39396 57.4771 2.10292 57.5441 1.84722C57.6129 1.59328 57.7416 1.38701 57.9338 1.22477C58.1225 1.06606 58.3941 0.967317 58.7539 0.930283V0.177274H54.2164ZM71.897 0.177274V0.930283C72.3679 0.984951 72.703 1.16481 72.9076 1.46813C73.1086 1.76969 73.2056 2.18763 73.202 2.72196V13.1212C73.2056 13.6643 73.098 14.0875 72.8881 14.3891C72.6783 14.6924 72.345 14.8688 71.897 14.9147V15.6658H76.4098V14.9147C76.0659 14.8917 75.7979 14.8035 75.6092 14.6554C75.4187 14.5072 75.2847 14.3009 75.2124 14.0435C75.1383 13.786 75.1013 13.4756 75.1048 13.1212V6.92605H75.4804C75.7503 6.92252 76.0306 6.93311 76.3216 6.9578C76.6091 6.98426 76.9 7.04771 77.1963 7.15176C77.489 7.25404 77.7853 7.4198 78.078 7.65258C78.3672 7.88007 78.6565 8.1975 78.9333 8.6031C79.2085 9.0087 79.473 9.52548 79.7287 10.1568C80.0302 10.9133 80.3035 11.5869 80.5557 12.1847C80.8061 12.7826 81.0601 13.3029 81.3176 13.7473C81.5768 14.1917 81.8678 14.5637 82.1958 14.8653C82.5203 15.1651 82.9117 15.3925 83.3614 15.5548C83.8146 15.717 84.3578 15.814 84.9944 15.844C85.2466 15.8546 85.4741 15.8546 85.684 15.837C85.8921 15.8211 86.1054 15.7876 86.3223 15.7329V14.7365C85.892 14.7912 85.5076 14.7612 85.1725 14.6448C84.8322 14.5267 84.5342 14.3485 84.2714 14.1087C84.014 13.8706 83.7847 13.5938 83.5854 13.2799C83.3897 12.9625 83.2168 12.6345 83.0687 12.2959C82.9223 11.952 82.79 11.6205 82.6754 11.2996C82.5608 10.9821 82.4585 10.6946 82.3616 10.4442C82.1729 9.95394 81.9524 9.4902 81.6985 9.0458C81.4481 8.60317 81.1412 8.20104 80.7868 7.84482C80.4288 7.4833 80.0002 7.18528 79.5012 6.94015C78.9986 6.69679 78.4043 6.53103 77.7148 6.43933V6.30705C77.9846 6.23298 78.2509 6.1114 78.5189 5.94916C78.7852 5.78163 79.0426 5.59467 79.2931 5.38128C79.54 5.17143 79.7657 4.94921 79.9756 4.72525C80.1819 4.49953 80.36 4.28972 80.5028 4.09398C80.7144 3.79595 80.912 3.51547 81.0971 3.25271C81.2823 2.99171 81.4798 2.78189 81.6861 2.61788C81.8978 2.45564 82.1446 2.37105 82.4286 2.36752C82.5643 2.36047 82.7125 2.39038 82.8677 2.44857C83.0264 2.51206 83.1657 2.6338 83.2962 2.82249C83.4196 3.00942 83.5096 3.29329 83.5554 3.6742H84.3084V0.244223C84.0651 0.148995 83.8305 0.0820496 83.6013 0.0485434C83.372 0.0150373 83.1586 -0.00442898 82.9594 0.000861462C82.4585 0.00791538 82.0229 0.110226 81.6508 0.316553C81.277 0.519353 80.9578 0.789154 80.688 1.12069C80.4147 1.45751 80.1783 1.8138 79.9791 2.20177C79.7763 2.58797 79.5999 2.96887 79.4412 3.34097C79.3407 3.57022 79.2243 3.81705 79.0832 4.07805C78.9439 4.34081 78.7693 4.60002 78.5595 4.85043C78.3532 5.10437 78.0957 5.32837 77.7853 5.52411C77.4767 5.72339 77.1029 5.87149 76.6602 5.97553C76.2211 6.07429 75.7061 6.10252 75.1048 6.06196V2.72196C75.1013 2.54209 75.1154 2.35341 75.1436 2.16119C75.1718 1.96721 75.23 1.78552 75.3182 1.60741C75.4028 1.43459 75.5368 1.2865 75.7132 1.16482C75.886 1.0449 76.1188 0.967317 76.4098 0.930283V0.177274H71.897ZM95.0392 0.000861462C94.1839 0.00438842 93.3957 0.11555 92.6761 0.328931C91.9566 0.545839 91.3041 0.849092 90.7204 1.23177C90.1385 1.61973 89.6306 2.06598 89.188 2.57386C88.7454 3.0835 88.3768 3.63715 88.0805 4.22615C87.7825 4.81692 87.5621 5.42538 87.4104 6.05141C87.2623 6.67921 87.1846 7.30172 87.1846 7.9207C87.1846 8.54144 87.2623 9.16391 87.4104 9.79171C87.5621 10.4177 87.7825 11.0262 88.0805 11.617C88.3768 12.2077 88.7454 12.7562 89.188 13.2694C89.6306 13.7773 90.1385 14.2234 90.7204 14.6114C91.3041 14.994 91.9566 15.2974 92.6761 15.5107C93.3957 15.7294 94.1839 15.8387 95.0392 15.844C95.8963 15.8387 96.6845 15.7294 97.404 15.5107C98.1271 15.2974 98.776 14.994 99.358 14.6114C99.9399 14.2234 100.453 13.7773 100.892 13.2694C101.335 12.7562 101.703 12.2077 101.998 11.617C102.298 11.0262 102.518 10.4177 102.67 9.79171C102.82 9.16391 102.894 8.54144 102.894 7.9207C102.894 7.30172 102.82 6.67921 102.67 6.05141C102.518 5.42538 102.298 4.81692 101.998 4.22615C101.703 3.63715 101.335 3.0835 100.892 2.57386C100.453 2.06598 99.9399 1.61973 99.358 1.23177C98.776 0.849092 98.1271 0.545839 97.404 0.328931C96.6845 0.11555 95.8963 0.00438842 95.0392 0.000861462ZM95.0392 0.863227C95.8116 0.863227 96.5329 1.01837 97.2083 1.32875C97.8872 1.63735 98.4886 2.09059 99.007 2.69193C99.5273 3.28975 99.9346 4.0269 100.233 4.90511C100.527 5.77803 100.679 6.78502 100.682 7.9207C100.679 9.05638 100.527 10.0598 100.233 10.938C99.9346 11.8127 99.5273 12.5533 99.007 13.1494C98.4886 13.7507 97.8872 14.2058 97.2083 14.5144C96.5329 14.8247 95.8116 14.9799 95.0392 14.9799C94.2721 14.9799 93.5473 14.8247 92.8719 14.5144C92.1929 14.2058 91.5951 13.7507 91.0714 13.1494C90.5529 12.5533 90.1473 11.8127 89.851 10.938C89.5512 10.0598 89.4014 9.05638 89.3978 7.9207C89.4014 6.78502 89.5512 5.77803 89.851 4.90511C90.1473 4.0269 90.5529 3.28975 91.0714 2.69193C91.5951 2.09059 92.1929 1.63735 92.8719 1.32875C93.5473 1.01837 94.2721 0.863227 95.0392 0.863227Z" fill="#277525"/>
</g>
</g>
<g id="Group_4">
<g id="Group_5">
<path id="Vector_2" d="M3.02437 24.0427H1.19211V24.3866C1.29439 24.3883 1.38962 24.4129 1.48132 24.4535C1.57126 24.4976 1.64531 24.5594 1.69998 24.6493C1.75818 24.7375 1.78644 24.8521 1.78996 24.9949V29.9838C1.78996 30.1072 1.77582 30.2271 1.74761 30.3417C1.71939 30.4564 1.66122 30.5552 1.57658 30.6345C1.49017 30.7156 1.3614 30.765 1.19211 30.7826V31.1283H2.78983V30.7826C2.6946 30.7773 2.59936 30.7526 2.50589 30.705C2.41419 30.6574 2.33837 30.5763 2.27841 30.4616C2.21669 30.347 2.18497 30.1883 2.1832 29.9838V24.4377H2.21318L4.87605 31.2094H5.20934L8.01327 24.427H8.04325V29.9644C8.04148 30.1707 8.01151 30.3329 7.95332 30.4511C7.89336 30.5675 7.81749 30.6522 7.72755 30.7016C7.63762 30.7509 7.54239 30.7773 7.44717 30.7826V31.1283H9.51224V30.7826C9.40467 30.7773 9.30763 30.7473 9.2177 30.6909C9.12776 30.6327 9.05372 30.5463 9.00081 30.4282C8.94438 30.31 8.91615 30.1548 8.91438 29.9644V25.2065C8.91262 25.0566 8.92852 24.9226 8.96379 24.8062C8.99729 24.6898 9.05725 24.5964 9.14542 24.5206C9.23359 24.4483 9.35529 24.4042 9.51224 24.3866V24.0427H7.69935L5.33102 29.8022H5.29044L3.02437 24.0427ZM13.8751 23.9615H13.6722C13.6229 24.0179 13.5594 24.0743 13.4801 24.1325C13.4007 24.1907 13.3143 24.2436 13.2226 24.293C13.1327 24.3406 13.0463 24.3742 12.9634 24.3971V24.741C13.0304 24.7392 13.0886 24.7498 13.1344 24.7709C13.182 24.7921 13.205 24.8345 13.2067 24.8926C13.2085 24.9103 13.2032 24.935 13.1909 24.9703C13.1803 25.0038 13.1538 25.0619 13.115 25.1466L10.8383 30.0649C10.8154 30.1178 10.7802 30.1813 10.7343 30.2589C10.6885 30.3347 10.6302 30.4123 10.5632 30.4881C10.4945 30.5657 10.4169 30.631 10.3305 30.6875C10.2423 30.7421 10.1453 30.7738 10.0378 30.7826V31.1283H11.6072V30.7826C11.4908 30.7597 11.4044 30.7227 11.348 30.6768C11.2898 30.631 11.2528 30.5834 11.2369 30.5323C11.2193 30.4829 11.2105 30.4388 11.2122 30.4C11.2105 30.3859 11.2175 30.3542 11.2299 30.3013C11.2457 30.2484 11.281 30.1636 11.3339 30.0437L11.7271 29.1849H15.2506L15.6562 30.0949C15.6861 30.1655 15.7108 30.2289 15.7249 30.2801C15.7408 30.3312 15.7479 30.3682 15.7479 30.3876C15.7479 30.467 15.7426 30.5305 15.7267 30.5834C15.7126 30.6345 15.6773 30.6786 15.6262 30.7104C15.5733 30.7421 15.4939 30.7667 15.3828 30.7826V31.1283H17.3667V30.7826C17.2451 30.7756 17.141 30.7385 17.0476 30.6715C16.9576 30.6063 16.8765 30.5199 16.806 30.4088C16.7319 30.2995 16.6684 30.1743 16.6067 30.035L13.8751 23.9615ZM15.069 28.7899H11.9105L13.4589 25.4587H13.5718L15.069 28.7899ZM16.4868 25.3282H16.8307C16.8624 25.1607 16.9171 25.0108 16.9947 24.875C17.0722 24.7427 17.1869 24.6352 17.335 24.5576C17.4832 24.48 17.6789 24.4394 17.924 24.4377H19.3613V29.9644C19.363 30.116 19.3454 30.25 19.3119 30.3647C19.2766 30.4793 19.2167 30.5745 19.1267 30.6451C19.0385 30.7156 18.9151 30.7632 18.7546 30.7826V31.1283H20.8285V30.7826C20.6645 30.7667 20.5393 30.721 20.4546 30.6469C20.3664 30.5746 20.3083 30.4793 20.2765 30.3629C20.2448 30.2448 20.2306 30.1143 20.2324 29.9644V24.4377H21.6591C21.8795 24.4394 22.0629 24.4711 22.2058 24.5328C22.3486 24.5963 22.4597 24.674 22.5408 24.7675C22.622 24.8627 22.6783 24.9597 22.7101 25.0584C22.7436 25.1607 22.7612 25.2507 22.763 25.3282H23.1051V23.9615L20.8091 24.0427H18.7846L16.4868 23.9615V25.3282ZM23.7647 24.0427V24.3866C23.9322 24.3918 24.0592 24.4288 24.1473 24.4994C24.2355 24.5699 24.2955 24.667 24.3255 24.7904C24.359 24.9121 24.3748 25.0496 24.3713 25.2065V29.9644C24.3748 30.1143 24.3554 30.2448 24.3166 30.3629C24.2778 30.4793 24.2143 30.5746 24.1244 30.6469C24.0362 30.721 23.9163 30.7667 23.7647 30.7826V31.1283H29.4942L29.6053 29.6099H29.2615C29.2421 29.8357 29.1803 30.0226 29.0763 30.169C28.9705 30.3154 28.8311 30.4317 28.6566 30.5146C28.4837 30.5957 28.2827 30.6521 28.0534 30.6856C27.8295 30.7174 27.5826 30.7351 27.3181 30.7333H25.2425V27.7371H26.5087C26.6198 27.7353 26.7167 27.7371 26.8014 27.7424C26.886 27.7459 26.9619 27.7635 27.0254 27.7971C27.0906 27.8288 27.147 27.8835 27.1982 27.9628C27.2475 28.0422 27.2952 28.1551 27.3375 28.305H27.6726V26.7743H27.3375C27.3093 26.9224 27.2617 27.037 27.1982 27.1164C27.1312 27.1957 27.0571 27.2504 26.976 27.2821C26.8948 27.3139 26.812 27.3315 26.7291 27.3368C26.6462 27.3421 26.5721 27.3438 26.5087 27.3421H25.2425V24.4377H27.0941C27.2828 24.4359 27.4609 24.4447 27.6302 24.464C27.7977 24.4834 27.9494 24.5241 28.0905 24.5841C28.2281 24.644 28.3479 24.7304 28.4484 24.8485C28.5472 24.9631 28.6231 25.1166 28.6742 25.307H29.0181V23.9615C28.8982 23.9562 28.8047 23.9545 28.7394 23.9562C28.6724 23.958 28.6195 23.9633 28.5825 23.9686C28.5437 23.9757 28.5084 23.9809 28.4767 23.9897C28.445 23.9985 28.4026 24.0073 28.3515 24.0126C28.2986 24.0214 28.2263 24.0303 28.1328 24.0338C28.0393 24.0391 27.9124 24.0427 27.7519 24.0427H23.7647ZM32.2276 24.0427H30.3953V24.3866C30.4976 24.3883 30.5928 24.4129 30.6845 24.4535C30.7745 24.4976 30.8486 24.5594 30.9033 24.6493C30.9615 24.7375 30.9897 24.8521 30.9932 24.9949V29.9838C30.9932 30.1072 30.9791 30.2271 30.9526 30.3417C30.9226 30.4564 30.8645 30.5552 30.7798 30.6345C30.6934 30.7156 30.5646 30.765 30.3953 30.7826V31.1283H31.9931V30.7826C31.8978 30.7773 31.8026 30.7526 31.7092 30.705C31.6175 30.6574 31.5416 30.5763 31.4816 30.4616C31.4199 30.347 31.3882 30.1883 31.3864 29.9838V24.4377H31.4164L34.0793 31.2094H34.4126L37.2165 24.427H37.2465V29.9644C37.2465 30.1707 37.2147 30.3329 37.1565 30.4511C37.0966 30.5675 37.0208 30.6522 36.9308 30.7016C36.8409 30.7509 36.7474 30.7773 36.6504 30.7826V31.1283H38.7155V30.7826C38.6079 30.7773 38.5109 30.7473 38.421 30.6909C38.331 30.6327 38.2587 30.5463 38.204 30.4282C38.1494 30.31 38.1194 30.1548 38.1176 29.9644V25.2065C38.1158 25.0566 38.1317 24.9226 38.167 24.8062C38.2005 24.6898 38.2605 24.5964 38.3486 24.5206C38.4368 24.4483 38.5585 24.4042 38.7155 24.3866V24.0427H36.9026L34.5342 29.8022H34.4937L32.2276 24.0427ZM43.0783 23.9615H42.8755C42.8261 24.0179 42.7626 24.0743 42.6833 24.1325C42.6039 24.1907 42.5175 24.2436 42.4276 24.293C42.3359 24.3406 42.2495 24.3742 42.1666 24.3971V24.741C42.2354 24.7392 42.2918 24.7498 42.3376 24.7709C42.3852 24.7921 42.4082 24.8345 42.41 24.8926C42.4117 24.9103 42.4064 24.935 42.3941 24.9703C42.3835 25.0038 42.357 25.0619 42.3183 25.1466L40.0416 30.0649C40.0186 30.1178 39.9834 30.1813 39.9375 30.2589C39.8917 30.3347 39.8335 30.4123 39.7665 30.4881C39.6995 30.5657 39.6219 30.631 39.5337 30.6875C39.4455 30.7421 39.3486 30.7738 39.241 30.7826V31.1283H40.8105V30.7826C40.6941 30.7597 40.6077 30.7227 40.5512 30.6768C40.493 30.631 40.456 30.5834 40.4401 30.5323C40.4225 30.4829 40.4137 30.4388 40.4154 30.4C40.4137 30.3859 40.4208 30.3542 40.4349 30.3013C40.449 30.2484 40.4842 30.1636 40.5371 30.0437L40.9321 29.1849H44.4538L44.8594 30.0949C44.8894 30.1655 44.9141 30.2289 44.9282 30.2801C44.944 30.3312 44.9511 30.3682 44.9511 30.3876C44.9511 30.467 44.9458 30.5305 44.9299 30.5834C44.9158 30.6345 44.8806 30.6786 44.8294 30.7104C44.7765 30.7421 44.6972 30.7667 44.5861 30.7826V31.1283H46.57V30.7826C46.4483 30.7756 46.3442 30.7385 46.2508 30.6715C46.1608 30.6063 46.0797 30.5199 46.0092 30.4088C45.9351 30.2995 45.8716 30.1743 45.8099 30.035L43.0783 23.9615ZM44.2722 28.7899H41.1138L42.6639 25.4587H42.775L44.2722 28.7899ZM45.69 25.3282H46.0339C46.0656 25.1607 46.1203 25.0108 46.1979 24.875C46.2755 24.7427 46.3901 24.6352 46.5383 24.5576C46.6864 24.48 46.8821 24.4394 47.1272 24.4377H48.5645V29.9644C48.5662 30.116 48.5504 30.25 48.5151 30.3647C48.4799 30.4793 48.4199 30.5745 48.3299 30.6451C48.2435 30.7156 48.1183 30.7632 47.9579 30.7826V31.1283H50.0317V30.7826C49.8695 30.7667 49.7425 30.721 49.6578 30.6469C49.5697 30.5746 49.5115 30.4793 49.4798 30.3629C49.448 30.2448 49.4339 30.1143 49.4356 29.9644V24.4377H50.8623C51.0827 24.4394 51.2661 24.4711 51.409 24.5328C51.5518 24.5963 51.6629 24.674 51.7441 24.7675C51.8252 24.8627 51.8816 24.9597 51.9151 25.0584C51.9468 25.1607 51.9645 25.2507 51.9663 25.3282H52.3084V23.9615L50.0123 24.0427H47.9878L45.69 23.9615V25.3282ZM52.9679 24.0427V24.3866C53.1249 24.4042 53.2483 24.4483 53.3382 24.5206C53.4264 24.5964 53.4881 24.6898 53.5234 24.8062C53.5604 24.9226 53.5781 25.0566 53.5745 25.2065V29.9644C53.5781 30.1143 53.5604 30.2448 53.5234 30.3629C53.4881 30.4793 53.4264 30.5746 53.3382 30.6469C53.2483 30.721 53.1249 30.7667 52.9679 30.7826V31.1283H55.0435V30.7826C54.8866 30.7667 54.7631 30.721 54.6767 30.6504C54.5903 30.5781 54.5286 30.4828 54.4951 30.3682C54.4616 30.2501 54.4439 30.116 54.4457 29.9644V29.7016L58.5052 25.956H58.5352V29.9644C58.5369 30.1107 58.5193 30.2412 58.4858 30.3594C58.4506 30.4793 58.3906 30.5764 58.3007 30.6504C58.2125 30.7245 58.0873 30.7685 57.9268 30.7826V31.1283H60.0024V30.7826C59.8349 30.7632 59.7097 30.7156 59.6233 30.6451C59.5368 30.5745 59.4787 30.4793 59.4487 30.3647C59.4169 30.25 59.4046 30.116 59.4046 29.9644V25.2065C59.4046 25.0566 59.4187 24.9226 59.4522 24.8062C59.4822 24.6898 59.5404 24.5964 59.6285 24.5206C59.7149 24.4483 59.8402 24.4042 60.0024 24.3866V24.0427H57.9268V24.3866C58.0414 24.3971 58.1419 24.4306 58.2337 24.4853C58.3254 24.5399 58.3994 24.6122 58.4523 24.7021C58.507 24.7921 58.5334 24.8909 58.5352 25.0037V25.3282L54.4757 29.0615H54.4457V25.2065C54.4439 25.0566 54.4598 24.9226 54.4898 24.8062C54.5215 24.6898 54.5815 24.5964 54.6679 24.5206C54.7543 24.4483 54.8795 24.4042 55.0435 24.3866V24.0427H52.9679ZM60.662 24.0427V24.3866C60.8242 24.4042 60.9494 24.4483 61.0376 24.5206C61.1222 24.5964 61.1822 24.6898 61.2139 24.8062C61.2457 24.9226 61.2598 25.0566 61.258 25.2065V26.4921C61.2562 26.6596 61.2686 26.8289 61.295 27.0035C61.3215 27.1763 61.3762 27.3421 61.4591 27.5026C61.5402 27.663 61.6636 27.8041 61.8241 27.9311C61.9881 28.0563 62.2033 28.1569 62.4713 28.2309C62.7394 28.305 63.0744 28.3437 63.4747 28.3437C63.7445 28.3437 64.0037 28.3208 64.2524 28.2785C64.4975 28.2362 64.7338 28.1798 64.9525 28.1127C65.1729 28.0457 65.374 27.9752 65.5609 27.8994V29.9644C65.5609 30.1196 65.5433 30.2554 65.5062 30.3718C65.471 30.4882 65.4093 30.5816 65.3211 30.6522C65.2329 30.7227 65.113 30.7667 64.9631 30.7826V31.1283H67.0369V30.7826C66.8183 30.7615 66.6631 30.6786 66.5661 30.5375C66.4744 30.3947 66.4285 30.2042 66.432 29.9644V25.2065C66.4285 25.1272 66.4356 25.0408 66.4497 24.9526C66.4638 24.8644 66.4903 24.778 66.5343 24.6969C66.5749 24.6157 66.6366 24.547 66.7178 24.4905C66.7971 24.4359 66.9047 24.4007 67.0369 24.3866V24.0427H64.9631V24.3866C65.1253 24.4042 65.2523 24.4518 65.3387 24.5241C65.4251 24.5999 65.4851 24.6933 65.5168 24.8115C65.5468 24.9279 65.5609 25.0584 65.5609 25.2065V27.4232C65.4304 27.4867 65.2876 27.5484 65.1289 27.6048C64.9737 27.6648 64.8097 27.716 64.6404 27.7619C64.4711 27.8059 64.3053 27.8412 64.1378 27.8694C63.972 27.8958 63.8168 27.9081 63.6669 27.9081C63.3266 27.9081 63.0515 27.864 62.8469 27.7794C62.6388 27.6965 62.4854 27.5873 62.3813 27.455C62.2791 27.3174 62.2103 27.1746 62.175 27.0194C62.1415 26.866 62.1257 26.7161 62.1274 26.5733V25.2065C62.1274 25.0566 62.145 24.9226 62.1786 24.8062C62.2121 24.6898 62.272 24.5964 62.3602 24.5206C62.4466 24.4483 62.5683 24.4042 62.727 24.3866V24.0427H60.662ZM68.0897 24.0427V24.3866C68.2572 24.3918 68.386 24.4288 68.4724 24.4994C68.5606 24.5699 68.6206 24.667 68.6506 24.7904C68.6841 24.9121 68.6999 25.0496 68.6981 25.2065V29.9644C68.6999 30.1143 68.6805 30.2448 68.6417 30.3629C68.6029 30.4793 68.5394 30.5746 68.4495 30.6469C68.3613 30.721 68.2414 30.7667 68.0897 30.7826V31.1283H73.8193L73.9304 29.6099H73.5865C73.5689 29.8357 73.5054 30.0226 73.4014 30.169C73.2956 30.3154 73.1562 30.4317 72.9816 30.5146C72.8088 30.5957 72.6078 30.6521 72.3803 30.6856C72.1546 30.7174 71.9077 30.7351 71.6432 30.7333H69.5675V27.7371H70.8337C70.9448 27.7353 71.0418 27.7371 71.1265 27.7424C71.2111 27.7459 71.2869 27.7635 71.3504 27.7971C71.4156 27.8288 71.4721 27.8835 71.5233 27.9628C71.5744 28.0422 71.6202 28.1551 71.6625 28.305H71.9976V26.7743H71.6625C71.6343 26.9224 71.5867 27.037 71.5233 27.1164C71.4562 27.1957 71.3839 27.2504 71.301 27.2821C71.2199 27.3139 71.137 27.3315 71.0541 27.3368C70.9712 27.3421 70.8972 27.3438 70.8337 27.3421H69.5675V24.4377H71.4209C71.6079 24.4359 71.786 24.4447 71.9553 24.464C72.1228 24.4834 72.2745 24.5241 72.4155 24.5841C72.5531 24.644 72.673 24.7304 72.7735 24.8485C72.8723 24.9631 72.9481 25.1166 72.9992 25.307H73.3431V23.9615C73.2232 23.9562 73.1315 23.9545 73.0645 23.9562C72.9975 23.958 72.9464 23.9633 72.9076 23.9686C72.8706 23.9757 72.8352 23.9809 72.8017 23.9897C72.77 23.9985 72.7277 24.0073 72.6783 24.0126C72.6254 24.0214 72.5513 24.0303 72.4596 24.0338C72.3644 24.0391 72.2392 24.0427 72.0788 24.0427H68.0897ZM80.4694 25.7638V24.2049H80.3177C80.3107 24.2137 80.2983 24.226 80.2754 24.2436C80.2542 24.263 80.2278 24.2824 80.1907 24.2983C80.1572 24.3159 80.1185 24.3248 80.0744 24.3248C80.0285 24.3248 79.9756 24.323 79.9121 24.3142C79.8521 24.3054 79.7763 24.2913 79.6864 24.2701C79.5965 24.2507 79.4871 24.2207 79.3566 24.1837C79.1961 24.1378 79.0392 24.0973 78.8858 24.062C78.7306 24.0303 78.5771 24.0056 78.422 23.9862C78.2668 23.9703 78.1081 23.9615 77.9388 23.9615C77.4468 23.9633 76.9953 24.0567 76.5879 24.2383C76.1806 24.4182 75.8244 24.6757 75.5281 25.0037C75.2283 25.3335 74.9973 25.7197 74.8368 26.1641C74.6728 26.6103 74.5899 27.0952 74.5881 27.626C74.5917 28.185 74.6781 28.6876 74.8509 29.1285C75.022 29.5711 75.2618 29.9468 75.5722 30.2554C75.8808 30.5658 76.2423 30.8003 76.6603 30.9643C77.0747 31.1265 77.5279 31.2076 78.0199 31.2094C78.4132 31.2059 78.7817 31.1477 79.115 31.0366C79.4501 30.9238 79.7534 30.7721 80.025 30.5817C80.2983 30.3912 80.5364 30.1796 80.7427 29.9433L80.5293 29.7105C80.3495 29.9186 80.1343 30.1055 79.8874 30.2712C79.6405 30.4352 79.3707 30.5675 79.0868 30.6663C78.7994 30.7615 78.5084 30.8126 78.2121 30.8144C77.8295 30.8144 77.4785 30.7456 77.1593 30.608C76.8401 30.4705 76.5668 30.2677 76.3322 29.9997C76.0995 29.7316 75.9214 29.3983 75.7926 29.0033C75.6674 28.6065 75.6021 28.1533 75.6004 27.6348C75.6021 27.1869 75.6498 26.7848 75.7415 26.4321C75.835 26.0777 75.9619 25.7708 76.1224 25.5098C76.2829 25.2506 76.468 25.0355 76.6744 24.8644C76.8807 24.6916 77.0976 24.5646 77.3304 24.4817C77.5596 24.3971 77.7889 24.3565 78.0199 24.3565C78.2174 24.3548 78.4184 24.3813 78.6213 24.4324C78.8276 24.4835 79.0251 24.5647 79.2173 24.6758C79.4095 24.7886 79.5824 24.9331 79.7393 25.1113C79.8945 25.2894 80.025 25.5081 80.1255 25.7638H80.4694ZM81.6633 24.0427V24.3866C81.8784 24.413 82.0336 24.4941 82.1253 24.6316C82.2188 24.771 82.2628 24.9614 82.2611 25.2065V29.9644C82.2628 30.2113 82.2134 30.4071 82.1165 30.5446C82.0212 30.6822 81.8696 30.7632 81.6633 30.7826V31.1283H83.7283V30.7826C83.5713 30.7738 83.4479 30.7333 83.3632 30.6663C83.2733 30.5992 83.2133 30.5023 83.1798 30.3859C83.1463 30.2677 83.1287 30.1249 83.1305 29.9644V27.1305H83.3033C83.4267 27.1269 83.5537 27.134 83.6877 27.1446C83.82 27.1569 83.954 27.1851 84.0881 27.2327C84.2221 27.2803 84.3579 27.3562 84.4919 27.462C84.6242 27.566 84.7546 27.7125 84.8834 27.8959C85.0086 28.0828 85.1302 28.3191 85.2466 28.6066C85.3859 28.954 85.5094 29.2608 85.624 29.5359C85.7387 29.8092 85.8551 30.0472 85.9732 30.25C86.0931 30.4528 86.2254 30.6222 86.3753 30.7615C86.5234 30.8973 86.7033 31.003 86.9079 31.0771C87.1159 31.1512 87.3646 31.1953 87.6555 31.2094C87.7702 31.2129 87.8742 31.213 87.9712 31.2059C88.0647 31.1989 88.1634 31.1829 88.2639 31.1583V30.7033C88.0647 30.728 87.8901 30.7157 87.7367 30.661C87.5815 30.6063 87.4457 30.5251 87.3258 30.4158C87.2059 30.3065 87.1018 30.1796 87.0101 30.035C86.9219 29.8921 86.8426 29.7405 86.7756 29.5853C86.7068 29.4301 86.6468 29.2785 86.5939 29.1303C86.5428 28.9857 86.4952 28.8534 86.4511 28.7387C86.3647 28.5148 86.2642 28.3014 86.1478 28.1004C86.0314 27.8958 85.8938 27.7124 85.7316 27.5484C85.5676 27.3844 85.3718 27.2468 85.1426 27.1357C84.9133 27.0246 84.64 26.9488 84.3261 26.9065V26.8465C84.4478 26.813 84.5695 26.7567 84.6929 26.6826C84.8146 26.6068 84.9327 26.5203 85.0473 26.4233C85.1602 26.3263 85.2643 26.2258 85.3595 26.1217C85.4547 26.0194 85.5359 25.9243 85.6011 25.8343C85.6981 25.6968 85.788 25.5698 85.8727 25.4499C85.9556 25.33 86.049 25.233 86.1425 25.1589C86.2395 25.0849 86.3523 25.0461 86.4811 25.0443C86.5428 25.0408 86.6098 25.0549 86.6821 25.0813C86.7544 25.1113 86.8179 25.166 86.8779 25.2524C86.9361 25.3388 86.9749 25.4675 86.9978 25.6421H87.3417V24.0726C87.2306 24.0303 87.1212 23.9986 87.0189 23.9827C86.9131 23.9686 86.8144 23.9597 86.7244 23.9615C86.4952 23.965 86.2959 24.0127 86.1249 24.1062C85.9556 24.1996 85.8092 24.323 85.684 24.4747C85.5606 24.6281 85.453 24.7921 85.3613 24.9684C85.2678 25.1465 85.1885 25.3194 85.1144 25.4904C85.0703 25.5945 85.0156 25.7073 84.9504 25.8272C84.8869 25.9472 84.8076 26.0653 84.7123 26.18C84.6171 26.2963 84.4989 26.3986 84.3578 26.4885C84.2168 26.5802 84.0457 26.6473 83.8429 26.6949C83.6419 26.739 83.4073 26.7531 83.1305 26.7355V25.2065C83.1287 25.1236 83.1357 25.0372 83.1499 24.9508C83.1622 24.8608 83.1887 24.778 83.2292 24.6969C83.268 24.6175 83.328 24.5505 83.4109 24.4941C83.4885 24.4394 83.5943 24.4042 83.7283 24.3866V24.0427H81.6633ZM92.0995 23.9615H91.8967C91.8491 24.0179 91.7839 24.0743 91.7045 24.1325C91.6269 24.1907 91.5387 24.2436 91.4488 24.293C91.3571 24.3406 91.2707 24.3742 91.1895 24.3971V24.741C91.2566 24.7392 91.313 24.7498 91.3589 24.7709C91.4065 24.7921 91.4294 24.8345 91.4312 24.8926C91.4329 24.9103 91.4277 24.935 91.4153 24.9703C91.4047 25.0038 91.38 25.0619 91.3412 25.1466L89.0628 30.0649C89.0399 30.1178 89.0064 30.1813 88.9588 30.2589C88.9129 30.3347 88.8547 30.4123 88.7877 30.4881C88.7207 30.5657 88.6431 30.631 88.5549 30.6875C88.4685 30.7421 88.3697 30.7738 88.2639 30.7826V31.1283H89.8317V30.7826C89.7153 30.7597 89.6306 30.7227 89.5724 30.6768C89.5143 30.631 89.479 30.5834 89.4614 30.5323C89.4437 30.4829 89.4349 30.4388 89.4384 30.4C89.4349 30.3859 89.4437 30.3542 89.456 30.3013C89.4701 30.2484 89.5054 30.1636 89.5583 30.0437L89.9534 29.1849H93.4768L93.8824 30.0949C93.9124 30.1655 93.9353 30.2289 93.9494 30.2801C93.9653 30.3312 93.9723 30.3682 93.9723 30.3876C93.9741 30.467 93.967 30.5305 93.9512 30.5834C93.9371 30.6345 93.9035 30.6786 93.8506 30.7104C93.7977 30.7421 93.7184 30.7667 93.6073 30.7826V31.1283H95.5912V30.7826C95.4695 30.7756 95.3655 30.7385 95.2738 30.6715C95.1821 30.6063 95.101 30.5199 95.0304 30.4088C94.9581 30.2995 94.8929 30.1743 94.8329 30.035L92.0995 23.9615ZM93.2934 28.7899H90.135L91.6851 25.4587H91.7962L93.2934 28.7899ZM100.005 30.7826V31.1283H102.09V30.7826C101.957 30.7703 101.852 30.7351 101.769 30.6786C101.688 30.6222 101.626 30.5551 101.585 30.474C101.543 30.3911 101.517 30.3065 101.502 30.2166C101.488 30.1284 101.481 30.0437 101.483 29.9644V25.2065C101.481 25.0584 101.497 24.9279 101.532 24.8098C101.568 24.6899 101.628 24.5946 101.716 24.5206C101.804 24.4447 101.929 24.4007 102.09 24.3866V24.0427H99.559C99.0652 24.0427 98.642 24.0761 98.2911 24.1414C97.9384 24.2084 97.6456 24.3001 97.4146 24.42C97.1836 24.5382 97.0038 24.6775 96.8715 24.8397C96.7392 25.0019 96.6458 25.1783 96.5911 25.3705C96.5382 25.5628 96.5117 25.7656 96.5117 25.9754C96.5153 26.1959 96.5506 26.3969 96.6211 26.5768C96.6916 26.7549 96.7868 26.9136 96.9085 27.0511C97.0302 27.1869 97.1695 27.3016 97.3247 27.395C97.4834 27.4867 97.6457 27.5572 97.8185 27.6048C97.9913 27.6524 98.1623 27.6771 98.3352 27.6771V27.7072C98.2294 27.7319 98.1306 27.7671 98.0407 27.8147C97.9472 27.8606 97.852 27.9187 97.7567 27.9893C97.5751 28.1286 97.4253 28.282 97.3071 28.4478C97.1907 28.6153 97.0937 28.7899 97.0214 28.9663C96.9473 29.1462 96.8856 29.3208 96.8345 29.4936C96.7851 29.6664 96.7357 29.8269 96.6863 29.9768C96.6387 30.1284 96.5805 30.2571 96.5117 30.3682C96.4447 30.4758 96.3636 30.5675 96.2649 30.6398C96.1679 30.7156 96.062 30.7685 95.9474 30.8055C95.8328 30.8408 95.7146 30.8585 95.5912 30.8532V31.1988C95.6935 31.2077 95.7922 31.213 95.8892 31.2112C95.988 31.2112 96.0885 31.2094 96.189 31.2094C96.316 31.2094 96.4447 31.1936 96.5717 31.1654C96.6987 31.1336 96.8221 31.0931 96.9385 31.0366C97.1254 30.9502 97.2859 30.8321 97.42 30.6875C97.5575 30.5411 97.6739 30.3735 97.7709 30.1884C97.8714 30.0014 97.9561 29.8022 98.0284 29.5941C98.1042 29.3807 98.1712 29.1673 98.2329 28.9522C98.2647 28.834 98.3052 28.7123 98.3564 28.5818C98.4093 28.4513 98.4816 28.3296 98.575 28.215C98.6703 28.0986 98.7972 28.0034 98.9577 27.9311C99.1181 27.8588 99.321 27.82 99.5696 27.8183H100.612V29.9644C100.614 30.1178 100.594 30.2519 100.559 30.37C100.522 30.4882 100.458 30.5833 100.37 30.6539C100.279 30.7262 100.159 30.7685 100.005 30.7826ZM100.612 24.4377V27.4232H99.4285C99.1534 27.425 98.8995 27.3985 98.6685 27.3509C98.4374 27.2998 98.2365 27.2169 98.0672 27.1023C97.8961 26.9876 97.7638 26.8342 97.6686 26.642C97.5734 26.448 97.5275 26.21 97.5258 25.926C97.5275 25.6809 97.561 25.4745 97.6333 25.3035C97.7039 25.136 97.8009 24.9949 97.9208 24.8874C98.0372 24.778 98.1712 24.6916 98.3193 24.6316C98.4674 24.5682 98.6191 24.5241 98.7743 24.4976C98.9313 24.4694 99.0776 24.4517 99.2222 24.4447C99.3633 24.4394 99.4903 24.4359 99.5996 24.4377H100.612Z" fill="#277525"/>
</g>
</g>
<g id="Group_6">
<g id="Group_7">
<path id="Vector_3" d="M0 57.3052H26.5386V56.4076C26.1119 56.3635 25.7874 56.2454 25.5616 56.0514C25.3341 55.8627 25.179 55.6158 25.0996 55.3125C25.0167 55.0056 24.978 54.6617 24.9815 54.272V41.8729C24.978 41.4726 25.022 41.1253 25.1102 40.8202C25.1984 40.5133 25.3553 40.2717 25.5846 40.083C25.8121 39.8978 26.1295 39.7797 26.5386 39.7356V38.8398H21.13V39.7356C21.5356 39.7709 21.8513 39.8855 22.0805 40.0707C22.3133 40.2594 22.4756 40.5062 22.5726 40.8131C22.6696 41.1217 22.7172 41.4726 22.7136 41.8729V56.2753H14.4041V41.8729C14.4006 41.4762 14.4341 41.1252 14.5135 40.8272C14.5928 40.5274 14.7462 40.2805 14.9702 40.0954C15.1959 39.9067 15.5257 39.7886 15.9613 39.7356V38.8398H10.5527V39.7356C10.9883 39.7744 11.3216 39.889 11.5508 40.083C11.7801 40.277 11.937 40.5274 12.0163 40.8395C12.101 41.1482 12.1398 41.4903 12.1345 41.8729V56.2753H3.825V41.8729C3.82147 41.4814 3.86556 41.134 3.95373 40.8307C4.04014 40.5274 4.19888 40.2806 4.42813 40.0884C4.65209 39.8979 4.97302 39.7797 5.38214 39.7356V38.8398H0V39.7356C0.409127 39.7797 0.730067 39.8979 0.955792 40.0884C1.18152 40.2806 1.34025 40.5274 1.43019 40.8307C1.5166 41.134 1.56067 41.4814 1.55715 41.8729V54.272C1.56067 54.6617 1.5166 55.0056 1.43019 55.3125C1.34025 55.6158 1.18152 55.8627 0.955792 56.0514C0.730067 56.2454 0.409127 56.3599 0 56.4076V57.3052ZM29.2826 38.8398V39.7356C29.8452 39.8009 30.2454 40.0178 30.487 40.3776C30.7286 40.7373 30.8433 41.2346 30.838 41.8729V54.272C30.8433 54.9174 30.7163 55.4235 30.4641 55.7833C30.2137 56.1448 29.8187 56.3546 29.2826 56.4076V57.3052H34.663V56.4076C34.2538 56.3811 33.9346 56.2753 33.7089 56.1007C33.4797 55.9243 33.3227 55.6774 33.2346 55.3706C33.1464 55.062 33.1023 54.6935 33.1076 54.272V46.8848H33.5555C33.8765 46.8795 34.2115 46.8936 34.5589 46.9236C34.9011 46.9553 35.2485 47.0294 35.5994 47.1528C35.9521 47.2763 36.303 47.4738 36.6504 47.7506C36.9978 48.024 37.3417 48.4013 37.6715 48.8863C37.9995 49.3695 38.3169 49.9832 38.6202 50.7362C38.98 51.6373 39.3062 52.4415 39.606 53.154C39.9041 53.8664 40.2074 54.4872 40.516 55.018C40.8228 55.547 41.1702 55.9896 41.5617 56.3512C41.9479 56.7074 42.4153 56.979 42.9514 57.1729C43.4927 57.3669 44.1381 57.4797 44.8982 57.515C45.198 57.5291 45.4713 57.5291 45.72 57.5062C45.9669 57.4903 46.2226 57.4497 46.4818 57.3827V56.1977C45.9669 56.2629 45.5102 56.2277 45.1099 56.0866C44.7043 55.9473 44.348 55.7339 44.0377 55.4482C43.729 55.1643 43.4574 54.8345 43.2194 54.4607C42.9866 54.0815 42.7803 53.6918 42.6039 53.2862C42.4276 52.877 42.2689 52.4821 42.1331 52.0994C41.9973 51.7202 41.8738 51.3782 41.7592 51.0784C41.5352 50.4929 41.2708 49.9391 40.9674 49.4119C40.6694 48.8863 40.3043 48.4067 39.8829 47.9799C39.4561 47.5478 38.9447 47.1916 38.3469 46.9024C37.7491 46.6114 37.0419 46.4139 36.2201 46.3046V46.1459C36.5411 46.0577 36.8567 45.9131 37.1777 45.7191C37.4951 45.5216 37.802 45.2976 38.1018 45.0419C38.3963 44.7933 38.6643 44.5288 38.9147 44.259C39.1616 43.9909 39.3715 43.7405 39.5425 43.5077C39.7947 43.1515 40.0328 42.8182 40.2515 42.506C40.4719 42.1939 40.7099 41.9435 40.9551 41.7495C41.2055 41.5555 41.5 41.455 41.8386 41.4497C42.0008 41.4409 42.1772 41.4762 42.3623 41.5467C42.551 41.6225 42.7186 41.7672 42.872 41.9911C43.0219 42.2151 43.1277 42.5537 43.1841 43.0069H44.0817V38.9174C43.7908 38.8045 43.5086 38.7252 43.237 38.6846C42.9637 38.6458 42.7098 38.6229 42.4717 38.6282C41.8739 38.6353 41.3554 38.7604 40.911 39.0056C40.4666 39.2472 40.0839 39.5681 39.763 39.9649C39.4385 40.3652 39.1581 40.7919 38.92 41.2522C38.6767 41.7142 38.4668 42.1675 38.2764 42.6118C38.1582 42.8834 38.0171 43.1779 37.8513 43.49C37.6838 43.8039 37.4775 44.1108 37.2271 44.4088C36.9802 44.7139 36.6733 44.9802 36.303 45.2148C35.9344 45.4511 35.49 45.6275 34.9627 45.7509C34.439 45.869 33.8236 45.9042 33.1076 45.8549V41.8729C33.1023 41.6578 33.1199 41.4321 33.1552 41.2046C33.1852 40.9701 33.2557 40.7567 33.3615 40.5451C33.462 40.337 33.6207 40.1624 33.8324 40.0178C34.0387 39.8731 34.3156 39.7797 34.663 39.7356V38.8398H29.2826ZM56.8758 38.6282C55.8547 38.6317 54.9148 38.764 54.056 39.0197C53.1989 39.2789 52.4212 39.6386 51.7264 40.0954C51.0316 40.5574 50.425 41.09 49.8977 41.6966C49.3704 42.3033 48.9295 42.9628 48.5786 43.6665C48.2224 44.3701 47.9579 45.0949 47.778 45.8426C47.6017 46.5903 47.5099 47.3327 47.5099 48.0716C47.5099 48.8105 47.6017 49.5546 47.778 50.3006C47.9579 51.0483 48.2224 51.7749 48.5786 52.4767C48.9295 53.1804 49.3704 53.8364 49.8977 54.4466C50.425 55.0532 51.0316 55.5858 51.7264 56.0478C52.4212 56.5046 53.1989 56.866 54.056 57.12C54.9148 57.3792 55.8547 57.5115 56.8758 57.515C57.8951 57.5115 58.835 57.3792 59.6938 57.12C60.5544 56.866 61.3285 56.5046 62.0233 56.0478C62.7182 55.5858 63.3301 55.0532 63.8521 54.4466C64.3794 53.8364 64.8185 53.1804 65.1712 52.4767C65.5274 51.7749 65.7919 51.0483 65.9718 50.3006C66.1517 49.5546 66.2399 48.8105 66.2399 48.0716C66.2399 47.3327 66.1517 46.5903 65.9718 45.8426C65.7919 45.0949 65.5274 44.3701 65.1712 43.6665C64.8185 42.9628 64.3794 42.3033 63.8521 41.6966C63.3301 41.09 62.7182 40.5574 62.0233 40.0954C61.3285 39.6386 60.5544 39.2789 59.6938 39.0197C58.835 38.764 57.8951 38.6317 56.8758 38.6282ZM56.8758 39.6562C57.7946 39.6562 58.6551 39.8414 59.4593 40.21C60.2705 40.5803 60.9864 41.1218 61.6054 41.8377C62.2261 42.5502 62.7093 43.4284 63.0656 44.4759C63.4165 45.5181 63.5964 46.7172 63.6017 48.0716C63.5964 49.426 63.4165 50.6216 63.0656 51.6691C62.7093 52.7095 62.2261 53.593 61.6054 54.3055C60.9864 55.0214 60.2705 55.5629 59.4593 55.9332C58.6551 56.3018 57.7946 56.4869 56.8758 56.4869C55.9605 56.4869 55.0947 56.3018 54.2887 55.9332C53.4811 55.5629 52.7686 55.0214 52.1443 54.3055C51.5236 53.593 51.0404 52.7095 50.6895 51.6691C50.3332 50.6216 50.1534 49.426 50.1481 48.0716C50.1534 46.7172 50.3332 45.5181 50.6895 44.4759C51.0404 43.4284 51.5236 42.5502 52.1443 41.8377C52.7686 41.1218 53.4811 40.5803 54.2887 40.21C55.0947 39.8414 55.9605 39.6562 56.8758 39.6562ZM72.9675 38.6282V39.524C73.4014 39.5505 73.7364 39.621 73.9692 39.7392C74.202 39.8538 74.3642 40.0125 74.4524 40.2064C74.5405 40.3987 74.5793 40.6332 74.5758 40.8959C74.5793 41.0282 74.5582 41.2434 74.5141 41.5397C74.4753 41.8324 74.3907 42.2451 74.2725 42.7794C74.1526 43.3102 73.978 44.0015 73.754 44.8444C73.5248 45.6926 73.225 46.7296 72.8617 47.9675C72.733 48.389 72.5919 48.8546 72.4385 49.3607C72.2798 49.8704 72.114 50.3888 71.9324 50.9213C71.749 51.4521 71.555 51.9619 71.3487 52.4557C71.1371 52.9477 70.9184 53.3868 70.6856 53.7783C70.451 54.1698 70.2094 54.4819 69.952 54.7111C69.691 54.9386 69.4229 55.0585 69.1408 55.062C69.035 55.0585 68.9309 55.0409 68.8251 55.0003C68.7193 54.9615 68.6135 54.921 68.5077 54.8769C68.065 54.6935 67.6506 54.6141 67.2768 54.6405C66.9029 54.667 66.6049 54.7992 66.3809 55.0355C66.1517 55.2736 66.0335 55.6158 66.0283 56.0655C66.0335 56.3812 66.1217 56.6492 66.2928 56.8661C66.4638 57.0759 66.6931 57.2381 66.9788 57.3492C67.2645 57.4586 67.5818 57.515 67.9292 57.515C68.5659 57.5115 69.1284 57.3669 69.6204 57.0794C70.1089 56.799 70.5427 56.4129 70.9272 55.9156C71.3046 55.4183 71.6431 54.8468 71.9429 54.2049C72.241 53.563 72.5125 52.8771 72.7647 52.1523C73.0151 51.4223 73.262 50.6869 73.4948 49.9444C73.7717 49.0786 74.0044 48.3308 74.1879 47.6942C74.373 47.0559 74.5282 46.5021 74.6464 46.0225C74.7681 45.5481 74.8703 45.1213 74.955 44.7386C75.0378 44.3577 75.1207 43.9874 75.2001 43.6259C75.2742 43.2696 75.3623 42.8922 75.4628 42.4972C75.5651 42.0969 75.6921 41.6437 75.842 41.134H75.9214L81.1448 57.3052H84.7846V56.4076C84.3279 56.434 83.9628 56.3547 83.6983 56.166C83.4338 55.9773 83.2239 55.7216 83.074 55.4006C82.9259 55.0762 82.7884 54.7287 82.6737 54.3513L77.5561 38.6282H72.9675ZM94.9934 38.6282H94.4661C94.3391 38.7728 94.1716 38.9227 93.9653 39.0708C93.7589 39.226 93.535 39.367 93.2969 39.4905C93.0588 39.6174 92.8349 39.7039 92.6197 39.7621V40.658C92.7961 40.6544 92.9442 40.6809 93.0624 40.7373C93.1858 40.7955 93.2476 40.9013 93.2528 41.0547C93.2564 41.0988 93.244 41.1641 93.2123 41.2558C93.1823 41.3457 93.117 41.4939 93.0148 41.7143L87.0807 54.5347C87.0189 54.6723 86.9307 54.8381 86.8126 55.0409C86.6892 55.2384 86.5392 55.4412 86.3629 55.6387C86.1866 55.8398 85.9855 56.0108 85.7563 56.1572C85.527 56.2983 85.2731 56.3811 84.9962 56.4076V57.3052H89.0839V56.4076C88.7806 56.3423 88.5567 56.2489 88.4068 56.1307C88.2569 56.0108 88.1617 55.8838 88.1176 55.7533C88.0735 55.6211 88.0506 55.5064 88.0559 55.4059C88.0506 55.3706 88.0682 55.286 88.1035 55.1502C88.144 55.0144 88.2322 54.794 88.3715 54.4819L89.4014 52.2387H98.5803L99.6366 54.6141C99.716 54.7993 99.7777 54.9615 99.8183 55.0973C99.8571 55.2296 99.8747 55.3265 99.8747 55.3794C99.8782 55.5822 99.8606 55.748 99.8218 55.8838C99.7813 56.0214 99.6949 56.136 99.5573 56.2189C99.4215 56.3018 99.2099 56.3635 98.9242 56.4076V57.3052H104.095V56.4076C103.777 56.3864 103.506 56.2894 103.264 56.1166C103.026 55.9473 102.816 55.7181 102.631 55.4324C102.442 55.1467 102.275 54.8204 102.118 54.4554L94.9934 38.6282ZM98.1077 51.2105H89.8758L93.9124 42.5325H94.2016L98.1077 51.2105Z" fill="#277525"/>
</g>
</g>
</g>
</svg>
