<svg width="66" height="77" viewBox="0 0 66 77" fill="none" xmlns="http://www.w3.org/2000/svg">
<g id="Group 17">
<g id="Group">
<g id="Group_2">
<path id="Vector" d="M58.9827 68.5174C58.9919 68.3224 58.9742 68.1628 58.948 68.0302C58.9118 67.8969 58.8147 67.8352 58.6636 67.826C58.5402 67.8175 58.4332 67.8614 58.3629 67.9501C58.3005 68.0472 58.2389 68.2337 58.1857 68.5174C58.0878 69.1286 57.9907 69.6073 57.8928 69.9618C57.7957 70.3164 57.6631 70.6262 57.5121 70.8836C57.3525 71.1488 57.1397 71.4417 56.8561 71.7608C56.7497 71.8934 56.5285 72.0529 56.174 72.2394C55.8286 72.4337 55.35 72.6025 54.7387 72.7528C54.1268 72.8947 53.3822 72.9748 52.4966 72.9833C51.9555 72.9833 51.3705 72.9925 50.733 73.001C50.0948 73.0103 49.4743 73.0187 48.8545 73.0187C48.2426 73.028 47.7023 73.0365 47.2321 73.0365C49.5013 71.3091 51.4591 69.4477 53.1163 67.4714C54.7735 65.4958 56.0584 63.4657 56.9625 61.393C57.8751 59.3103 58.336 57.2546 58.3445 55.2252C58.336 52.2916 57.8311 49.6424 56.8384 47.2761C55.8464 44.9105 54.4367 42.881 52.6206 41.1884C50.8039 39.4958 48.6503 38.2024 46.1692 37.2983C43.6788 36.3949 40.9324 35.9332 37.9279 35.9247C35.5709 35.9332 33.3556 36.2878 31.2907 36.9792C29.2173 37.6705 27.3381 38.6363 25.6462 39.8773C23.9536 41.1175 22.4999 42.5712 21.2774 44.2369C20.0627 45.9025 19.1154 47.7193 18.4594 49.6778C17.8035 51.6357 17.4667 53.6836 17.4582 55.8102C17.4667 57.4404 17.7057 59.0621 18.202 60.6661C18.6899 62.2786 19.4075 63.8387 20.3386 65.3363C21.2682 66.8424 22.3936 68.2514 23.7139 69.5541C25.0343 70.8567 26.5319 72.0175 28.1983 73.0365C27.4977 73.0365 26.7447 73.028 25.9384 73.0103C25.1321 72.9925 24.3259 72.9833 23.5189 72.9833C22.3496 72.9833 21.3661 72.8592 20.5768 72.6117C19.7798 72.3721 19.1863 72.0352 18.787 71.6013C18.6098 71.424 18.4063 71.0957 18.1581 70.6177C17.9099 70.1391 17.7149 69.4385 17.5638 68.5174C17.5114 68.2337 17.4582 68.0472 17.3873 67.9501C17.3164 67.8614 17.2185 67.8175 17.0852 67.826C16.9349 67.8352 16.8377 67.8969 16.8115 68.0302C16.7753 68.1628 16.7576 68.3224 16.7668 68.5174C16.7668 68.6152 16.7845 68.8719 16.8115 69.2974C16.8462 69.7228 16.8817 70.2277 16.9349 70.8298C16.988 71.4325 17.0412 72.0444 17.1036 72.6734C17.1653 73.2939 17.2185 73.8612 17.2809 74.3661C17.3426 74.8802 17.405 75.2432 17.4582 75.4822C17.5731 75.9346 17.7234 76.2622 17.9099 76.4572C18.0957 76.6522 18.3708 76.7678 18.7424 76.8118C19.1239 76.8564 19.6465 76.8735 20.3293 76.8649C21.6674 76.8649 22.9786 76.8564 24.2635 76.8387C25.5392 76.8118 26.7092 76.794 27.7728 76.7678C28.845 76.7408 29.7314 76.7231 30.4313 76.7054C31.0425 76.7586 31.5744 76.7848 32.0438 76.7941C32.5047 76.8118 32.9032 76.8118 33.2493 76.8118C33.3819 76.8118 33.462 76.7678 33.506 76.6877C33.5499 76.599 33.5683 76.4657 33.5683 76.2799L33.674 74.5788C32.6558 73.9144 31.6183 73.0811 30.5731 72.0884C29.5271 71.0956 28.5259 69.9703 27.5601 68.7123C26.6028 67.4629 25.7434 66.1071 24.9811 64.6449C24.228 63.192 23.626 61.6766 23.1828 60.0903C22.7396 58.4948 22.5177 56.8824 22.5091 55.2252C22.5177 52.31 22.8992 49.7665 23.6522 47.5774C24.4053 45.3884 25.4683 43.5724 26.8248 42.1102C28.1799 40.648 29.7668 39.5582 31.5921 38.8221C33.4173 38.096 35.4021 37.7329 37.5557 37.7329C39.2483 37.7329 40.8608 38.0073 42.4116 38.5477C43.9631 39.088 45.3984 39.8773 46.7095 40.9133C48.0214 41.9507 49.1645 43.2087 50.1388 44.6886C51.1145 46.1685 51.8761 47.8526 52.4164 49.7395C52.9574 51.6187 53.2319 53.6744 53.2404 55.9165C53.2319 58.2729 52.9035 60.4087 52.2746 62.3233C51.6371 64.2372 50.7769 65.9476 49.6963 67.4629C48.6057 68.9783 47.3832 70.3164 46.0189 71.4949C44.6538 72.6649 43.2363 73.6924 41.7564 74.5788L41.916 76.2799C41.9869 76.3863 42.0223 76.4842 42.0308 76.5636C42.0486 76.6345 42.0663 76.6969 42.084 76.7409C42.1017 76.7848 42.1549 76.8118 42.2351 76.8118C42.5804 76.8118 42.9789 76.8118 43.449 76.7941C43.9093 76.7848 44.4411 76.7586 45.0523 76.7054C45.5756 76.7139 46.2224 76.7324 46.9847 76.7501C47.7555 76.7678 48.5972 76.7848 49.519 76.8025C50.4408 76.821 51.4067 76.8387 52.4079 76.8472C53.4184 76.8565 54.4196 76.8649 55.4209 76.8649C56.103 76.8735 56.6349 76.8564 57.0065 76.8118C57.3787 76.7678 57.6631 76.6522 57.8396 76.4572C58.0261 76.2622 58.1765 75.9346 58.2921 75.4822C58.3445 75.2432 58.4069 74.8802 58.4686 74.3661C58.531 73.8612 58.5927 73.2939 58.6551 72.6734C58.7083 72.0444 58.77 71.4325 58.8147 70.8298C58.8679 70.2277 58.9033 69.7228 58.9388 69.2974C58.965 68.8719 58.9827 68.6152 58.9827 68.5174ZM6.82088 44.5631C6.49469 45.504 6.13164 46.3429 5.73028 47.0974C5.33035 47.8434 4.83609 48.4581 4.25816 48.924C3.68946 49.3991 2.97255 49.6977 2.12446 49.8182C1.88195 49.8459 1.6118 49.8749 1.29553 49.8934C0.978563 49.921 0.717604 49.9303 0.502745 49.9303C0.363051 49.9303 0.242508 49.9579 0.148906 50.0147C0.0560133 50.0707 0 50.1536 0 50.2657C0 50.4337 0.083661 50.5451 0.260938 50.611C0.428287 50.6848 0.698459 50.7131 1.06223 50.7131C1.72383 50.7131 2.39465 50.7039 3.07468 50.6848C3.7455 50.6663 4.37944 50.6479 4.9758 50.6295C5.57215 50.611 6.08413 50.5919 6.50392 50.5734C6.923 50.5543 7.22152 50.5451 7.37965 50.5451C7.53779 50.5451 7.78952 50.5543 8.13485 50.5734C8.47026 50.5919 8.86098 50.611 9.28999 50.6295C9.719 50.6479 10.1473 50.6663 10.5763 50.6848C11.0138 50.7039 11.396 50.7131 11.7407 50.7131C11.9924 50.7131 12.1973 50.6848 12.3462 50.611C12.4959 50.5451 12.5795 50.4337 12.5795 50.2657C12.5795 50.1536 12.5327 50.0707 12.4484 50.0147C12.3555 49.9579 12.2158 49.9303 12.02 49.9303H11.4613C11.1351 49.9303 10.8089 49.875 10.4919 49.7629C10.1664 49.6417 9.89556 49.4644 9.68141 49.2219C9.45805 48.9893 9.34601 48.6815 9.33679 48.3085C9.33679 47.7966 9.40132 47.2279 9.54173 46.5854C9.6722 45.9423 9.86791 45.2715 10.1189 44.5631L13.4737 34.6675C13.5297 34.5278 13.6042 34.4157 13.6879 34.3413C13.7815 34.2569 13.8928 34.22 14.0332 34.22H26.0533C26.193 34.22 26.2958 34.2477 26.3702 34.3037C26.4447 34.3597 26.5007 34.4434 26.5567 34.5554L31.7559 48.3085C31.9147 48.756 31.9424 49.1105 31.8403 49.3616C31.7467 49.6133 31.607 49.7629 31.4205 49.8182C31.3091 49.8459 31.2155 49.8934 31.1411 49.9487C31.0666 50.0146 31.029 50.0976 31.029 50.2104C31.029 50.3678 31.178 50.4706 31.4673 50.5082C31.7559 50.5543 32.1757 50.5827 32.7068 50.6011C33.6847 50.6295 34.6448 50.6479 35.5858 50.6663C36.5367 50.6848 37.4124 50.6947 38.2322 50.6947C39.0427 50.7039 39.7326 50.7131 40.3006 50.7131H41.4841C41.8011 50.7131 42.062 50.6848 42.2762 50.611C42.4811 50.5451 42.5932 50.4337 42.6024 50.2657C42.6024 50.126 42.5464 50.0423 42.4535 49.9955C42.3506 49.9487 42.2109 49.9303 42.0436 49.9303C41.7543 49.9303 41.4189 49.9118 41.0282 49.865C40.6367 49.8182 40.2354 49.7346 39.8071 49.5949C39.5185 49.5204 39.1923 49.3807 38.8476 49.185C38.4931 48.9801 38.1208 48.6631 37.7202 48.2341C37.3195 47.7966 36.8905 47.191 36.4339 46.4081C35.9772 45.6345 35.5021 44.6283 34.9986 43.3888C34.5703 42.3173 34.0669 41.0501 33.4989 39.5872C32.921 38.1244 32.3062 36.5402 31.6446 34.8348C30.983 33.1301 30.3022 31.3595 29.6038 29.5513C28.8954 27.7345 28.2061 25.927 27.5254 24.138C26.8361 22.3581 26.1838 20.6527 25.5597 19.031C24.9449 17.4192 24.3854 15.9563 23.882 14.6423C23.3785 13.3376 22.9693 12.2477 22.6339 11.3811C22.2985 10.5238 22.0837 9.95511 21.9724 9.67572C21.7483 9.10702 21.5717 8.66953 21.432 8.38021C21.2916 8.09161 21.1611 7.89587 21.059 7.80298C20.9562 7.70016 20.8541 7.6541 20.742 7.66331C20.63 7.6541 20.5279 7.70938 20.4251 7.82142C20.323 7.92424 20.1925 8.13838 20.0521 8.45535C19.9124 8.77232 19.7358 9.23751 19.5118 9.84309L6.82088 44.5631ZM14.648 32.2069C14.5643 32.2069 14.4991 32.1792 14.4615 32.114C14.4246 32.058 14.4246 31.9559 14.4799 31.8155L19.4004 16.72C19.6798 15.8818 19.9592 15.8818 20.2386 16.72L25.5505 31.8155C25.5874 31.9275 25.5874 32.0211 25.569 32.0948C25.5413 32.17 25.4661 32.2069 25.3264 32.2069H14.648Z" fill="#277525"/>
</g>
</g>
<g id="Group_3">
<g id="Group_4">
<path id="Vector_2" fill-rule="evenodd" clip-rule="evenodd" d="M59.4202 5.59274C60.3966 5.7693 61.144 6.62873 61.144 7.6541C61.144 8.67946 60.3966 9.5389 59.4202 9.71476V11.1337C60.4009 11.306 61.1525 12.1676 61.1525 13.1958C61.1525 14.3481 60.2101 15.2905 59.0585 15.2905C57.9069 15.2905 56.9645 14.3481 56.9645 13.1958C56.9645 12.9348 57.0127 12.6838 57.1014 12.4533L55.8278 11.7209C55.4435 12.2016 54.8528 12.5101 54.1933 12.5101C53.0417 12.5101 52.0994 11.5677 52.0994 10.4161C52.0994 9.3666 52.8822 8.49086 53.8934 8.34407V6.96204C52.8914 6.80746 52.1171 5.93596 52.1171 4.89216C52.1171 3.74057 53.0595 2.79816 54.2118 2.79816C55.3633 2.79816 56.3051 3.74057 56.3051 4.89216C56.3051 5.92391 55.5491 6.78685 54.5642 6.95633V8.35541C55.5406 8.53127 56.2873 9.39071 56.2873 10.4161C56.2873 10.6692 56.2419 10.9125 56.159 11.1373L57.4389 11.8726C57.7616 11.479 58.2246 11.2039 58.7494 11.1252V9.7261C57.7389 9.57932 56.9553 8.70428 56.9553 7.6541C56.9553 6.60391 57.7389 5.72887 58.7494 5.58209V4.166C57.7389 4.01921 56.9553 3.14347 56.9553 2.09399C56.9553 0.942404 57.8977 0 59.0493 0C60.2016 0 61.144 0.942404 61.144 2.09399C61.144 2.35494 61.0951 2.60599 61.0064 2.83716L62.2644 3.55973C62.6487 3.0747 63.2422 2.76198 63.906 2.76198C65.0575 2.76198 65.9999 3.70439 65.9999 4.85597C65.9999 5.90049 65.2249 6.77198 64.2222 6.92586V8.35117C65.2228 8.50646 65.995 9.37793 65.995 10.4203C65.995 11.5719 65.0526 12.5143 63.901 12.5143C62.7494 12.5143 61.807 11.5719 61.807 10.4203C61.807 9.38715 62.5643 8.52347 63.5514 8.35541V6.91945C62.5665 6.74998 61.8113 5.88701 61.8113 4.85597C61.8113 4.60637 61.8559 4.36739 61.9368 4.14544L60.6696 3.4172C60.359 3.79587 59.9201 4.0646 59.4202 4.15466V5.59274Z" fill="#EC6502"/>
</g>
</g>
</g>
</svg>
